<svg width="118" height="71" viewBox="0 0 118 71" fill="none" xmlns="http://www.w3.org/2000/svg">
<path d="M68.3553 51.2779L54.3525 46.939" stroke="#0A0A0A" stroke-width="2" stroke-linecap="round"/>
<path fill-rule="evenodd" clip-rule="evenodd" d="M61.6493 61.8153C61.6493 63.1846 62.7089 64.2947 64.016 64.2947C64.016 64.2947 64.0161 64.2947 64.0162 64.2947V64.2948H88.4717H88.4717C89.7788 64.2948 90.8384 63.1848 90.8384 61.8155C90.8384 60.4462 89.7788 59.3361 88.4717 59.3361H88.4717H64.0438C64.0345 59.336 64.0253 59.3359 64.016 59.3359C62.7089 59.3359 61.6493 60.446 61.6493 61.8153ZM65.6094 59.9821C65.6095 59.9822 65.6096 59.9823 65.6098 59.9824C65.31 59.8335 64.9691 59.7493 64.6076 59.7493C63.4095 59.7493 62.4382 60.6743 62.4382 61.8154C62.4382 62.7612 63.1055 63.5586 64.0162 63.8038V63.8037C64.2042 63.8544 64.4027 63.8815 64.6078 63.8815C64.8082 63.8815 65.0022 63.8556 65.1863 63.8072C65.2512 63.7901 65.3149 63.7703 65.3772 63.7478C65.457 63.7189 65.5344 63.6858 65.6094 63.6486C65.6093 63.6486 65.6093 63.6486 65.6093 63.6486C66.3034 63.304 66.7773 62.6124 66.7773 61.8153C66.7773 61.0183 66.3034 60.3267 65.6094 59.9821ZM86.8784 59.9821C87.1593 59.8426 87.4763 59.76 87.8125 59.7502C87.835 59.7495 87.8575 59.7492 87.88 59.7492C88.0673 59.7492 88.2489 59.7718 88.4222 59.8142C88.4388 59.8183 88.4553 59.8225 88.4717 59.827C89.3823 60.0722 90.0495 60.8696 90.0495 61.8153C90.0495 62.7611 89.3823 63.5584 88.4717 63.8037C88.2836 63.8544 88.0852 63.8815 87.88 63.8815C87.5185 63.8815 87.1776 63.7972 86.8778 63.6482C86.1841 63.3035 85.7106 62.6121 85.7106 61.8153C85.7106 61.0183 86.1844 60.3267 86.8784 59.9821ZM70.5245 63.8815C69.3263 63.8815 68.355 62.9565 68.355 61.8154C68.355 60.6743 69.3263 59.7493 70.5245 59.7493C71.7226 59.7493 72.6939 60.6743 72.6939 61.8154C72.6939 62.9565 71.7226 63.8815 70.5245 63.8815ZM74.2717 61.8154C74.2717 62.9565 75.243 63.8815 76.4412 63.8815C77.6393 63.8815 78.6106 62.9565 78.6106 61.8154C78.6106 60.6743 77.6393 59.7493 76.4412 59.7493C75.243 59.7493 74.2717 60.6743 74.2717 61.8154ZM82.3578 63.8815C81.1597 63.8815 80.1884 62.9565 80.1884 61.8154C80.1884 60.6743 81.1597 59.7493 82.3578 59.7493C83.556 59.7493 84.5273 60.6743 84.5273 61.8154C84.5273 62.9565 83.556 63.8815 82.3578 63.8815Z" fill="#0A0A0A"/>
<path fill-rule="evenodd" clip-rule="evenodd" d="M28.0001 61.8195C28.0001 63.1888 29.0597 64.2988 30.3667 64.2988L30.3667 64.2995H54.8223C56.1294 64.2995 57.189 63.1894 57.189 61.8201C57.189 60.4508 56.1294 59.3407 54.8223 59.3407H30.4212C30.4031 59.3403 30.385 59.3401 30.3667 59.3401C29.0597 59.3401 28.0001 60.4501 28.0001 61.8195ZM30.3667 59.8311C29.4562 60.0764 28.789 60.8737 28.789 61.8195C28.789 62.9606 29.7603 63.8856 30.9584 63.8856C31.3198 63.8856 31.6606 63.8014 31.9603 63.6526C31.96 63.6529 31.9596 63.6532 31.9592 63.6536C32.6537 63.3091 33.1278 62.6173 33.1278 61.82C33.1278 60.6789 32.1566 59.7538 30.9584 59.7538C30.7533 59.7538 30.5548 59.7809 30.3667 59.8316V59.8311ZM53.229 59.9867C53.5286 59.8379 53.8693 59.7538 54.2306 59.7538C54.4178 59.7538 54.5995 59.7764 54.7728 59.8189C54.7894 59.8229 54.8059 59.8272 54.8223 59.8316C55.7329 60.0769 56.4001 60.8742 56.4001 61.82C56.4001 62.7657 55.7329 63.563 54.8223 63.8083C54.6342 63.859 54.4357 63.8861 54.2306 63.8861C53.8691 63.8861 53.5282 63.8019 53.2284 63.6529C52.5347 63.3081 52.0612 62.6167 52.0612 61.82C52.0612 61.023 52.535 60.3314 53.229 59.9867ZM36.8751 63.8862C35.6769 63.8862 34.7056 62.9611 34.7056 61.82C34.7056 60.6789 35.6769 59.7539 36.8751 59.7539C38.0732 59.7539 39.0445 60.6789 39.0445 61.82C39.0445 62.9611 38.0732 63.8862 36.8751 63.8862ZM40.6223 61.82C40.6223 62.9611 41.5936 63.8862 42.7917 63.8862C43.9899 63.8862 44.9612 62.9611 44.9612 61.82C44.9612 60.6789 43.9899 59.7539 42.7917 59.7539C41.5936 59.7539 40.6223 60.6789 40.6223 61.82ZM48.7084 63.8862C47.5103 63.8862 46.539 62.9611 46.539 61.82C46.539 60.6789 47.5103 59.7539 48.7084 59.7539C49.9066 59.7539 50.8779 60.6789 50.8779 61.82C50.8779 62.9611 49.9066 63.8862 48.7084 63.8862Z" fill="#0A0A0A"/>
<path d="M91.2329 53.5505H65.594L60.4662 57.063L60.269 58.9225H91.2329V53.5505Z" fill="#0A0A0A"/>
<path fill-rule="evenodd" clip-rule="evenodd" d="M80.9772 48.7986V48.804C79.8388 48.668 78.569 48.592 77.23 48.592C72.3285 48.592 68.355 49.6096 68.355 50.8648C68.355 50.9344 68.3672 51.0033 68.3912 51.0714H68.355V53.1375H77.1857L77.23 53.1375L77.2742 53.1375H86.105V51.0714H86.0688C86.0928 51.0033 86.105 50.9344 86.105 50.8648C86.105 50.4515 85.6743 50.0641 84.9216 49.7302V48.7986V48.592H84.8095C84.5389 48.3512 83.8083 48.1787 82.9494 48.1787C82.0906 48.1787 81.36 48.3512 81.0893 48.592H80.9772V48.7986Z" fill="#0A0A0A"/>
<path d="M50.3315 51.3389L64 47" stroke="#0A0A0A" stroke-width="2" stroke-linecap="round"/>
<path d="M28 53.6113H53.0267L58.0321 57.1238L58.2246 58.9833H28V53.6113Z" fill="#0A0A0A"/>
<path fill-rule="evenodd" clip-rule="evenodd" d="M38.0107 48.8596V48.8649C39.122 48.7289 40.3614 48.653 41.6685 48.653C46.453 48.653 50.3316 49.6706 50.3316 50.9258C50.3316 50.9954 50.3196 51.0643 50.2963 51.1323H50.3316V53.1985H41.7117L41.6685 53.1985L41.6253 53.1985H33.0054V51.1323H33.0407C33.0173 51.0643 33.0054 50.9954 33.0054 50.9258C33.0054 50.5125 33.4258 50.125 34.1605 49.7911V48.8596V48.6528H34.2701C34.5346 48.4122 35.2475 48.2397 36.0856 48.2397C36.9236 48.2397 37.6366 48.4122 37.901 48.6528H38.0107V48.8596Z" fill="#0A0A0A"/>
<circle cx="58.4938" cy="38.4584" r="30.0417" stroke="#9E9E9E" stroke-width="5"/>
<path d="M1.39231 33.7321L2.83326 38.0655L4.38974 33.7321H5.78813V42.3988H4.69373V38.9405L4.78493 35.3214L3.14942 39.9881H2.50495L1.00319 35.4464L1.09439 38.9405V42.3988H0V33.7321H1.39231Z" fill="black"/>
<path d="M7.81276 35.9583H11.175V41.4464H13.3212V42.3988H7.81276V41.4464H10.0502V36.9167H7.81276V35.9583ZM9.90427 34.2679C9.90427 34.1726 9.91845 34.0833 9.94683 34C9.97925 33.9167 10.0279 33.8452 10.0927 33.7857C10.1454 33.7341 10.2123 33.6944 10.2934 33.6667C10.3785 33.6349 10.4738 33.619 10.5791 33.619C10.6845 33.619 10.7778 33.6349 10.8588 33.6667C10.9399 33.6944 11.0068 33.7341 11.0595 33.7857C11.1243 33.8413 11.173 33.9107 11.2054 33.994C11.2378 34.0774 11.254 34.1687 11.254 34.2679C11.254 34.4464 11.1973 34.5952 11.0838 34.7143C10.9703 34.8333 10.8021 34.8929 10.5791 34.8929C10.3522 34.8929 10.1819 34.8333 10.0684 34.7143C9.95899 34.5952 9.90427 34.4464 9.90427 34.2679Z" fill="black"/>
<path d="M15.2911 33.256H18.6533V41.4464H20.7996V42.3988H15.2911V41.4464H17.5285V34.2143H15.2911V33.256Z" fill="black"/>
<path d="M22.7695 35.9583H26.1317V41.4464H28.2779V42.3988H22.7695V41.4464H25.0069V36.9167H22.7695V35.9583ZM24.861 34.2679C24.861 34.1726 24.8752 34.0833 24.9035 34C24.936 33.9167 24.9846 33.8452 25.0495 33.7857C25.1022 33.7341 25.169 33.6944 25.2501 33.6667C25.3352 33.6349 25.4305 33.619 25.5359 33.619C25.6412 33.619 25.7345 33.6349 25.8155 33.6667C25.8966 33.6944 25.9635 33.7341 26.0162 33.7857C26.081 33.8413 26.1297 33.9107 26.1621 33.994C26.1945 34.0774 26.2107 34.1687 26.2107 34.2679C26.2107 34.4464 26.154 34.5952 26.0405 34.7143C25.927 34.8333 25.7588 34.8929 25.5359 34.8929C25.3089 34.8929 25.1386 34.8333 25.0251 34.7143C24.9157 34.5952 24.861 34.4464 24.861 34.2679Z" fill="black"/>
<path d="M32.7345 34.3988V35.9583H35.2395V36.8095H32.7345V40.3095C32.7345 40.5595 32.767 40.7659 32.8318 40.9286C32.8967 41.0913 32.9858 41.2202 33.0993 41.3155C33.2128 41.4147 33.3425 41.4841 33.4885 41.5238C33.6384 41.5635 33.7965 41.5833 33.9627 41.5833C34.0843 41.5833 34.2099 41.5774 34.3397 41.5655C34.4694 41.5496 34.597 41.5317 34.7227 41.5119C34.8443 41.4921 34.9578 41.4722 35.0632 41.4524C35.1726 41.4286 35.2618 41.4087 35.3307 41.3929L35.4888 42.1726C35.3955 42.2282 35.2821 42.2778 35.1483 42.3214C35.0145 42.3611 34.8686 42.3948 34.7105 42.4226C34.5525 42.4544 34.3842 42.4782 34.2059 42.494C34.0316 42.5099 33.8573 42.5179 33.683 42.5179C33.3912 42.5179 33.1176 42.4782 32.8622 42.3988C32.6109 42.3155 32.392 42.1845 32.2056 42.006C32.0191 41.8313 31.8712 41.6052 31.7617 41.3274C31.6564 41.0456 31.6037 40.7063 31.6037 40.3095V36.8095H29.877V35.9583H31.6037V34.3988H32.7345Z" fill="black"/>
<path d="M41.8727 42.3988C41.8281 42.3155 41.7917 42.2123 41.7633 42.0893C41.739 41.9623 41.7207 41.8313 41.7086 41.6964C41.5951 41.8075 41.4674 41.9127 41.3255 42.0119C41.1877 42.1111 41.0357 42.1984 40.8695 42.2738C40.6993 42.3492 40.5189 42.4087 40.3284 42.4524C40.1379 42.496 39.9352 42.5179 39.7204 42.5179C39.3718 42.5179 39.0557 42.4683 38.7719 42.369C38.4923 42.2698 38.2552 42.1349 38.0606 41.9643C37.862 41.7976 37.708 41.5992 37.5985 41.369C37.4931 41.1349 37.4404 40.8829 37.4404 40.6131C37.4404 40.2599 37.5114 39.9504 37.6532 39.6845C37.7992 39.4187 38.0038 39.1964 38.2673 39.0179C38.5308 38.8433 38.8469 38.7123 39.2158 38.625C39.5887 38.5377 40.0042 38.494 40.4622 38.494H41.6903V37.9881C41.6903 37.7937 41.6539 37.619 41.5809 37.4643C41.5079 37.3095 41.4046 37.1766 41.2708 37.0655C41.1371 36.9583 40.9729 36.875 40.7783 36.8155C40.5878 36.756 40.373 36.7262 40.1339 36.7262C39.9109 36.7262 39.7103 36.754 39.5319 36.8095C39.3577 36.8651 39.2097 36.9385 39.0881 37.0298C38.9665 37.121 38.8713 37.2302 38.8023 37.3571C38.7375 37.4802 38.7051 37.6091 38.7051 37.744H37.5742C37.5783 37.5099 37.639 37.2798 37.7566 37.0536C37.8782 36.8274 38.0525 36.623 38.2795 36.4405C38.5024 36.2619 38.774 36.1171 39.0942 36.006C39.4185 35.8948 39.7853 35.8393 40.1947 35.8393C40.5676 35.8393 40.9141 35.8849 41.2343 35.9762C41.5546 36.0635 41.8322 36.1964 42.0673 36.375C42.2983 36.5575 42.4807 36.7837 42.6145 37.0536C42.7482 37.3234 42.8151 37.6389 42.8151 38V40.994C42.8151 41.2083 42.8354 41.4365 42.8759 41.6786C42.9165 41.9167 42.9732 42.125 43.0462 42.3036V42.3988H41.8727ZM39.8846 41.5595C40.1035 41.5595 40.3082 41.5317 40.4987 41.4762C40.6892 41.4206 40.8635 41.3472 41.0215 41.256C41.1756 41.1647 41.3093 41.0615 41.4228 40.9464C41.5363 40.8274 41.6255 40.7044 41.6903 40.5774V39.2738H40.6446C40.2555 39.2738 39.915 39.3075 39.6231 39.375C39.3354 39.4385 39.1063 39.5377 38.9361 39.6726C38.8145 39.7679 38.7213 39.881 38.6564 40.0119C38.5956 40.1429 38.5652 40.2917 38.5652 40.4583C38.5652 40.6171 38.5916 40.7639 38.6443 40.8988C38.701 41.0337 38.7841 41.1488 38.8936 41.244C39.003 41.3433 39.1408 41.4206 39.307 41.4762C39.4732 41.5317 39.6657 41.5595 39.8846 41.5595Z" fill="black"/>
<path d="M49.3389 35.8393C49.5457 35.8393 49.7605 35.8532 49.9834 35.881C50.2104 35.9087 50.3806 35.9464 50.4941 35.994L50.3421 37.0714C50.1232 37.0238 49.9145 36.9901 49.7159 36.9702C49.5213 36.9464 49.3166 36.9345 49.1018 36.9345C48.8262 36.9345 48.5769 36.9683 48.354 37.0357C48.131 37.0992 47.9365 37.1944 47.7703 37.3214C47.6203 37.4325 47.4886 37.5694 47.3751 37.7321C47.2657 37.8909 47.1745 38.0694 47.1015 38.2679V42.3988H45.9706V35.9583H47.0407L47.0893 36.8214L47.0954 36.9821C47.3629 36.629 47.6832 36.3512 48.0561 36.1488C48.433 35.9425 48.8606 35.8393 49.3389 35.8393Z" fill="black"/>
<path d="M53.0356 45C52.9302 45 52.8065 44.9881 52.6647 44.9643C52.5228 44.9405 52.4154 44.9206 52.3424 44.9048L52.5248 44.006C52.6262 44.0139 52.7255 44.0198 52.8228 44.0238C52.9241 44.0317 53.0031 44.0357 53.0599 44.0357C53.2139 44.0357 53.3537 43.994 53.4794 43.9107C53.6091 43.8274 53.7246 43.7282 53.826 43.6131C53.9232 43.498 54.0063 43.379 54.0752 43.256C54.1482 43.1329 54.2049 43.0317 54.2455 42.9524L54.6954 42.0952L51.8621 35.9583H53.1207L54.9264 40.1131L55.2183 40.8929L55.5283 40.1369L57.2247 35.9583H58.4832L55.1453 43.3929C55.0683 43.5595 54.969 43.7361 54.8474 43.9226C54.7298 44.1091 54.5859 44.2817 54.4157 44.4405C54.2455 44.5992 54.0469 44.7321 53.8199 44.8393C53.5929 44.9464 53.3314 45 53.0356 45Z" fill="black"/>
<path d="M65.9555 34.6726H63.2195V42.3988H62.1251V34.6726H59.3891V33.7321H65.9555V34.6726Z" fill="black"/>
<path d="M70.3695 42.5179C69.9075 42.5179 69.4819 42.4405 69.0927 42.2857C68.7077 42.131 68.3773 41.9147 68.1017 41.6369C67.8261 41.3591 67.6113 41.0298 67.4572 40.6488C67.3032 40.2679 67.2262 39.8532 67.2262 39.4048V39.1548C67.2262 38.6349 67.3113 38.1706 67.4816 37.7619C67.6518 37.3492 67.8788 37 68.1625 36.7143C68.4422 36.4325 68.7604 36.2163 69.1171 36.0655C69.4778 35.9147 69.8467 35.8393 70.2236 35.8393C70.6979 35.8393 71.1113 35.9206 71.4639 36.0833C71.8206 36.2421 72.1165 36.4623 72.3516 36.744C72.5867 37.0298 72.761 37.3651 72.8745 37.75C72.992 38.1349 73.0508 38.5516 73.0508 39V39.494H68.351V39.5357C68.3794 39.8492 68.4422 40.125 68.5395 40.3631C68.6408 40.6012 68.7786 40.8115 68.9529 40.994C69.1313 41.1885 69.3461 41.3413 69.5974 41.4524C69.8487 41.5635 70.1263 41.619 70.4303 41.619C70.8316 41.619 71.1883 41.5397 71.5004 41.381C71.8125 41.2222 72.0719 41.0119 72.2786 40.75L72.9657 41.2738C72.7468 41.5992 72.4185 41.8889 71.9807 42.1429C71.547 42.3929 71.01 42.5179 70.3695 42.5179ZM70.2236 36.744C69.9966 36.744 69.7818 36.7857 69.5791 36.869C69.3765 36.9484 69.1941 37.0655 69.0319 37.2202C68.8698 37.379 68.732 37.5734 68.6185 37.8036C68.5091 38.0298 68.4321 38.2917 68.3875 38.5893H71.926V38.5357C71.926 38.3373 71.8875 38.125 71.8105 37.8988C71.7335 37.6687 71.6261 37.4702 71.4883 37.3036C71.3504 37.1369 71.1761 37.002 70.9654 36.8988C70.7587 36.7956 70.5114 36.744 70.2236 36.744Z" fill="black"/>
<path d="M77.7445 41.625C77.9472 41.625 78.1438 41.5933 78.3343 41.5298C78.5289 41.4663 78.7011 41.377 78.8511 41.2619C79.0011 41.1508 79.1206 41.0198 79.2098 40.869C79.303 40.7143 79.3517 40.5476 79.3557 40.369H80.4197C80.4157 40.6548 80.3387 40.9286 80.1887 41.1905C80.0428 41.4484 79.8462 41.6746 79.5989 41.869C79.3517 42.0675 79.0679 42.2262 78.7477 42.3452C78.4275 42.4603 78.0931 42.5179 77.7445 42.5179C77.246 42.5179 76.8102 42.4306 76.4373 42.256C76.0644 42.0813 75.7544 41.8452 75.5071 41.5476C75.2558 41.254 75.0673 40.9147 74.9417 40.5298C74.816 40.1409 74.7532 39.7321 74.7532 39.3036V39.0536C74.7532 38.629 74.816 38.2222 74.9417 37.8333C75.0673 37.4444 75.2558 37.1012 75.5071 36.8036C75.7544 36.5099 76.0644 36.2758 76.4373 36.1012C76.8102 35.9266 77.246 35.8393 77.7445 35.8393C78.1337 35.8393 78.4903 35.9008 78.8146 36.0238C79.1429 36.1429 79.4267 36.3056 79.6658 36.5119C79.9009 36.7222 80.0853 36.9702 80.2191 37.256C80.3528 37.5417 80.4197 37.8472 80.4197 38.1726H79.3557C79.3517 37.9782 79.3071 37.7956 79.222 37.625C79.1409 37.4504 79.0294 37.2976 78.8876 37.1667C78.7457 37.0357 78.5755 36.9325 78.3769 36.8571C78.1823 36.7817 77.9715 36.744 77.7445 36.744C77.396 36.744 77.1021 36.8135 76.8629 36.9524C76.6279 37.0873 76.4373 37.2639 76.2914 37.4821C76.1455 37.7044 76.0401 37.9524 75.9753 38.2262C75.9145 38.5 75.8841 38.7758 75.8841 39.0536V39.3036C75.8841 39.5853 75.9145 39.8651 75.9753 40.1429C76.0401 40.4167 76.1455 40.6627 76.2914 40.881C76.4333 41.1032 76.6218 41.2837 76.8569 41.4226C77.096 41.5575 77.3919 41.625 77.7445 41.625Z" fill="black"/>
<path d="M83.5448 36.9167C83.634 36.7857 83.7333 36.6667 83.8428 36.5595C83.9522 36.4484 84.0677 36.3512 84.1893 36.2679C84.3839 36.129 84.5967 36.0238 84.8277 35.9524C85.0628 35.881 85.3121 35.8433 85.5755 35.8393C85.9201 35.8393 86.2322 35.8889 86.5119 35.9881C86.7956 36.0833 87.0368 36.2341 87.2354 36.4405C87.434 36.6468 87.586 36.9087 87.6914 37.2262C87.8008 37.5397 87.8555 37.9127 87.8555 38.3452V42.3988H86.7307V38.3333C86.7307 38.0794 86.7003 37.8571 86.6395 37.6667C86.5787 37.4722 86.4896 37.3115 86.372 37.1845C86.2464 37.0456 86.0883 36.9425 85.8978 36.875C85.7073 36.8036 85.4884 36.7698 85.2411 36.7738C85.0385 36.7738 84.8459 36.8016 84.6635 36.8571C84.4811 36.9127 84.3129 36.9921 84.1589 37.0952C84.0373 37.1746 83.9238 37.2679 83.8184 37.375C83.7171 37.4782 83.6259 37.5933 83.5448 37.7202V42.3988H82.42V33.256H83.5448V36.9167Z" fill="black"/>
<path d="M89.8984 33.7321H95.2488V34.6905H93.1269V41.4464H95.2488V42.3988H89.8984V41.4464H91.9717V34.6905H89.8984V33.7321Z" fill="black"/>
<path d="M97.3768 42.3988V35.9583H98.386L98.4651 36.9107C98.5623 36.7758 98.6677 36.6528 98.7812 36.5417C98.8988 36.4266 99.0224 36.3274 99.1521 36.244C99.3467 36.1171 99.5574 36.0198 99.7844 35.9524C100.015 35.881 100.259 35.8433 100.514 35.8393C100.859 35.8393 101.171 35.8869 101.45 35.9821C101.734 36.0774 101.975 36.2262 102.174 36.4286C102.372 36.631 102.524 36.8889 102.63 37.2024C102.739 37.5119 102.794 37.881 102.794 38.3095V42.3988H101.669V38.3333C101.669 38.0476 101.637 37.8056 101.572 37.6071C101.507 37.4087 101.412 37.248 101.286 37.125C101.156 37.002 100.998 36.9127 100.812 36.8571C100.63 36.8016 100.419 36.7738 100.18 36.7738C99.9729 36.7738 99.7804 36.8036 99.602 36.8631C99.4237 36.9187 99.2595 36.996 99.1095 37.0952C98.9879 37.1825 98.8745 37.2837 98.7691 37.3988C98.6677 37.5139 98.5786 37.6409 98.5015 37.7798V42.3988H97.3768Z" fill="black"/>
<path d="M106.533 42.3988V36.8095H104.721V35.9583H106.533V35.506C106.533 35.0933 106.594 34.7321 106.716 34.4226C106.841 34.1091 107.018 33.8472 107.245 33.6369C107.467 33.4266 107.737 33.2679 108.053 33.1607C108.369 33.0536 108.722 33 109.111 33C109.273 33 109.433 33.0099 109.591 33.0298C109.749 33.0456 109.906 33.0675 110.06 33.0952C110.161 33.1151 110.262 33.1369 110.364 33.1607C110.465 33.1806 110.568 33.2044 110.674 33.2321L110.54 34.1429C110.374 34.0873 110.179 34.0397 109.956 34C109.737 33.9563 109.502 33.9345 109.251 33.9345C108.996 33.9345 108.769 33.9663 108.57 34.0298C108.375 34.0893 108.213 34.1806 108.084 34.3036C107.946 34.4306 107.84 34.5952 107.767 34.7976C107.699 35 107.664 35.2361 107.664 35.506V35.9583H110.199V36.8095H107.664V42.3988H106.533Z" fill="black"/>
<path d="M112.017 39.119C112.017 38.6548 112.086 38.2242 112.224 37.8274C112.362 37.4266 112.56 37.0794 112.82 36.7857C113.075 36.4921 113.387 36.2619 113.756 36.0952C114.125 35.9246 114.541 35.8393 115.003 35.8393C115.469 35.8393 115.886 35.9246 116.255 36.0952C116.628 36.2619 116.944 36.4921 117.204 36.7857C117.459 37.0794 117.655 37.4266 117.793 37.8274C117.931 38.2242 118 38.6548 118 39.119V39.25C118 39.7143 117.931 40.1448 117.793 40.5417C117.655 40.9385 117.459 41.2837 117.204 41.5774C116.944 41.871 116.63 42.1012 116.261 42.2679C115.892 42.4345 115.477 42.5179 115.015 42.5179C114.549 42.5179 114.129 42.4345 113.756 42.2679C113.387 42.1012 113.075 41.871 112.82 41.5774C112.56 41.2837 112.362 40.9385 112.224 40.5417C112.086 40.1448 112.017 39.7143 112.017 39.25V39.119ZM113.142 39.25C113.142 39.5675 113.181 39.871 113.258 40.1607C113.335 40.4464 113.452 40.6984 113.61 40.9167C113.764 41.1349 113.959 41.3075 114.194 41.4345C114.429 41.5615 114.703 41.625 115.015 41.625C115.323 41.625 115.592 41.5615 115.823 41.4345C116.058 41.3075 116.255 41.1349 116.413 40.9167C116.567 40.6984 116.683 40.4464 116.76 40.1607C116.837 39.871 116.875 39.5675 116.875 39.25V39.119C116.875 38.8056 116.835 38.506 116.754 38.2202C116.677 37.9306 116.561 37.6766 116.407 37.4583C116.249 37.2401 116.052 37.0675 115.817 36.9405C115.586 36.8095 115.315 36.744 115.003 36.744C114.69 36.744 114.419 36.8095 114.188 36.9405C113.957 37.0675 113.764 37.2401 113.61 37.4583C113.452 37.6766 113.335 37.9306 113.258 38.2202C113.181 38.506 113.142 38.8056 113.142 39.119V39.25Z" fill="black"/>
<path d="M56.4712 2.71963C57.2578 1.46539 59.0871 1.47087 59.8662 2.72979L64.1528 9.65645C64.9657 10.9701 64.0459 12.6702 62.5015 12.7083L53.7349 12.9248C52.1409 12.9641 51.144 11.2136 51.9912 9.86274L56.4712 2.71963Z" fill="#0A0A0A"/>
<path d="M51.135 13.9877C50.7704 12.7102 51.7297 11.439 53.0582 11.439H63.2904C64.5723 11.439 65.5232 12.6279 65.2415 13.8785L61.7888 29.2062C61.5833 30.1186 60.7729 30.7667 59.8377 30.7667H57.4317C56.5384 30.7667 55.7535 30.1744 55.5084 29.3155L51.135 13.9877Z" fill="#0A0A0A"/>
<path d="M65.1053 13.4111L83.4882 20.2306L84.2786 21.1426C85.4314 22.4727 84.4278 24.5359 82.6698 24.4501L63.0298 23.4921L65.1053 13.4111Z" fill="#0A0A0A"/>
<path d="M51.7395 13.1438L33.3566 19.9633L32.5661 20.8753C31.4134 22.2054 32.4169 24.2685 34.175 24.1828L53.8149 23.2247L51.7395 13.1438Z" fill="#0A0A0A"/>
<path d="M61.2271 25.4805L68.0408 33.3307L61.2271 30.3657V25.4805Z" fill="#0A0A0A"/>
<path d="M56.4775 25.5967L49.664 33.3056L56.4775 30.394V25.5967Z" fill="#0A0A0A"/>
</svg>
